<?xml version="1.0" encoding="utf-8"?>
<!-- Generator: Adobe Illustrator 24.3.0, SVG Export Plug-In . SVG Version: 6.00 Build 0)  -->
<svg version="1.0" id="Layer_1" xmlns="http://www.w3.org/2000/svg" xmlns:xlink="http://www.w3.org/1999/xlink" x="0px" y="0px"
	 viewBox="0 0 1080 1080" enable-background="new 0 0 1080 1080" xml:space="preserve">
<g>
	<g>
		<g>
			
				<linearGradient id="SVGID_1_" gradientUnits="userSpaceOnUse" x1="539.6028" y1="174.1475" x2="539.6028" y2="906" gradientTransform="matrix(1 0 0 -1 0 1080)">
				<stop  offset="0" style="stop-color:#690C0D"/>
				<stop  offset="7.050907e-02" style="stop-color:#700F10"/>
				<stop  offset="0.182" style="stop-color:#841819"/>
				<stop  offset="0.3206" style="stop-color:#A92525"/>
				<stop  offset="0.4794" style="stop-color:#E23735"/>
				<stop  offset="0.5" style="stop-color:#EF3A38"/>
				<stop  offset="0.549" style="stop-color:#DF3634"/>
				<stop  offset="0.8489" style="stop-color:#A72122"/>
				<stop  offset="1" style="stop-color:#931A1D"/>
			</linearGradient>
			<path fill="url(#SVGID_1_)" d="M749,174.2c55,0,87.4,12.7,96.7,38c4.8,10.7,7.1,29.3,7.1,55.9s-10.2,59.9-30.7,99.5
				c-20.4,39.6-45,78.8-73.7,117.5c-28.7,38.7-57.6,77.6-86.7,117c-69.1,95.2-103.8,171.9-103.8,230c0,14.6-0.8,25.5-2.3,32.4
				c-1.6,6.9-5.6,14.3-11.8,22c-6.2,7.7-16.8,12.8-31.2,15.5c-14.6,2.6-34.3,3.9-59.6,3.9s-45-1.3-59.6-3.9
				c-14.6-2.6-25-8.1-31.2-16c-6.2-8.1-10-15.5-11.2-22.5c-1.1-6.9-1.8-18.1-1.8-33.6c0-43.3,8.7-87.8,25.9-133.4
				c17.2-45.6,38.1-86.5,62.6-122.4c24.3-36,48.8-69.1,73.1-99.5c24.3-30.3,45.2-56.3,62.6-78c17.2-21.7,25.9-36.8,25.9-45.6h-269
				c-31.5,0-54.2-3.3-68.5-10c-14.1-6.6-23.6-16.3-28.2-29c-4.8-12.7-7.1-29.3-7.1-50s2.3-37.3,7.1-50c4.8-12.7,12.2-21.4,22.3-26
				c16.6-8.1,39.3-12,68.5-12H749V174.2z"/>
		</g>
		<g>
			
				<linearGradient id="SVGID_2_" gradientUnits="userSpaceOnUse" x1="539.7535" y1="141.4938" x2="539.7535" y2="940" gradientTransform="matrix(1 0 0 -1 0 1080)">
				<stop  offset="0" style="stop-color:#BD6E29"/>
				<stop  offset="6.536540e-02" style="stop-color:#C98937"/>
				<stop  offset="0.1479" style="stop-color:#D9AA4E"/>
				<stop  offset="0.2281" style="stop-color:#E7C764"/>
				<stop  offset="0.3041" style="stop-color:#F2DD74"/>
				<stop  offset="0.3743" style="stop-color:#FAEB7F"/>
				<stop  offset="0.433" style="stop-color:#FDF383"/>
				<stop  offset="0.4834" style="stop-color:#F1DA73"/>
				<stop  offset="0.6076" style="stop-color:#DCB052"/>
				<stop  offset="0.7254" style="stop-color:#CD913C"/>
				<stop  offset="0.8335" style="stop-color:#C47E30"/>
				<stop  offset="0.9284" style="stop-color:#BF722A"/>
				<stop  offset="1" style="stop-color:#BD6E29"/>
			</linearGradient>
			<path fill="url(#SVGID_2_)" d="M749.2,174.2c55,0,87.4,12.7,96.7,38c4.8,10.7,7.1,29.3,7.1,55.9s-10.2,59.9-30.7,99.5
				c-20.4,39.6-45,78.8-73.7,117.5c-28.7,38.7-57.6,77.6-86.7,117c-69.1,95.2-103.8,171.9-103.8,230c0,14.6-0.8,25.5-2.3,32.4
				c-1.6,6.9-5.6,14.3-11.8,22c-6.2,7.7-16.8,12.8-31.2,15.5c-14.6,2.6-34.3,3.9-59.6,3.9c-25.1,0-45-1.3-59.6-3.9
				c-14.6-2.6-25-8.1-31.2-16c-6.2-8.1-10-15.5-11.2-22.5c-1.1-6.9-1.8-18.1-1.8-33.6c0-43.3,8.7-87.8,25.9-133.4
				c17.2-45.6,38.1-86.5,62.6-122.4c24.3-36,48.8-69.1,73.1-99.5c24.3-30.3,45.2-56.3,62.6-78c17.2-21.7,25.9-36.8,25.9-45.6h-269
				c-31.5,0-54.2-3.3-68.5-10c-14.1-6.6-23.6-16.3-28.2-29c-4.8-12.7-7.1-29.3-7.1-50s2.3-37.3,7.1-50c4.8-12.7,12.2-21.4,22.3-26
				c16.6-8.1,39.3-12,68.5-12H749 M748.7,140H325c-36.2,0-65,5.3-87.8,16.2c-19.5,9-33.4,24.3-41.3,45.5c-6.1,16.2-9,35.9-9,60.2
				c0,24.3,2.9,44,8.8,60.2c7.9,21,24.1,37.7,47.2,48.6c20.5,9.5,49.2,14.3,87.8,14.3h202.5c-15.9,19.9-34.6,43-55.9,69.6
				c-24.9,31-50,65.1-74.5,101.4c-25.6,37.7-47.7,81.1-65.9,128.8c-18.5,48.7-27.9,97.1-27.9,143.6c0,17.1,0.7,29.5,2.1,38.2
				c2.1,12.1,8,24.5,17.5,36.6c8.5,10.7,25.1,24.8,56.4,30.5c17.4,3.1,39.6,4.8,68,4.8c28.3,0,50.5-1.5,68-4.8
				c24.7-4.6,43.4-14.4,55.9-29.4c9.5-11.7,15.7-23.5,18.3-35.1c2.1-9.4,3.1-21.7,3.1-38.9c0-51.2,32.8-122.3,97.5-211.4
				c28.8-38.9,57.7-77.8,86.3-116.3c29.7-39.9,55.4-80.9,76.3-121.8c22.9-44.3,33.9-81.2,33.9-112.9c0-30.9-2.9-52.2-9.2-67
				C872.6,173,840.3,140,748.7,140L748.7,140z"/>
		</g>
	</g>
	<path fill="#683A15" d="M748.7,140c91.7,0,123.9,33,134.7,61c6.2,14.8,9.2,36.1,9.2,67c0,31.7-11.1,68.6-33.9,112.9
		c-21.1,40.9-46.7,81.9-76.3,121.8c-28.7,38.6-57.5,77.5-86.3,116.3c-64.7,89.1-97.5,160.3-97.5,211.4c0,17.2-1,29.5-3.1,38.9
		c-2.6,11.7-8.8,23.5-18.3,35.1c-12.3,14.9-31.1,24.8-55.9,29.4c-17.5,3.1-39.6,4.8-68,4.8s-50.5-1.5-68-4.8
		c-31.3-5.7-47.8-19.7-56.4-30.5c-9.7-12.1-15.6-24.5-17.5-36.6c-1.5-8.7-2.1-21.2-2.1-38.2c0-46.6,9.3-94.8,27.9-143.6
		c18-47.6,40.1-90.9,65.9-128.8c24.6-36.4,49.8-70.6,74.5-101.4c21.3-26.6,40-49.7,55.9-69.6H330.9c-38.7,0-67.5-4.6-87.8-14.3
		c-23.1-10.8-39.3-27.6-47.2-48.6c-6.1-16.1-8.8-35.8-8.8-60.2c0-24.3,2.9-44,9-60.2c7.9-21.2,21.8-36.6,41.3-45.5
		c22.8-11,51.6-16.2,87.8-16.2H749 M749.4,127H324.3c-39.1,0-70.5,5.9-95.8,18.1c-22.8,10.5-39.3,28.5-48.5,53
		c-6.6,17.6-9.7,38.7-9.7,64.4s3.1,46.8,9.7,64.2c9,24.2,27.9,43.6,54.6,56.3c22.8,10.7,54.1,16,95.7,16h174.1
		c-12,15-25.2,31.4-39.6,49.4c-25.2,31.3-50.6,65.9-75.5,102.6c-26.3,38.7-48.8,83-67.4,131.7c-19.1,50.2-28.6,99.9-28.6,148
		c0,17.6,0.8,30.8,2.3,40.2c2.5,14.2,9.2,28.3,20.1,42.2c10,12.8,29.6,29.5,66.1,36.1c18.6,3.5,41.9,5.1,71.5,5.1
		c29.4,0,52.9-1.6,71.5-5.1c28.8-5.3,50.6-17,65.3-34.7c10.8-13.2,17.8-26.7,20.9-40.2c2.3-10.2,3.5-23.4,3.5-41.5
		c0-48.9,32.2-117.9,95.5-205.3c28.9-39,57.7-78,86.5-116.6c30.1-40.7,56.2-82.3,77.8-123.8c23.8-46.1,35.3-85,35.3-118.5
		c0-32.6-3.3-55.3-10.2-71.6C886.8,165,850.8,127,749.4,127L749.4,127z"/>
	<path fill="#FFFFFF" d="M862.2,183.3L862.2,183.3L862.2,183.3c-18.9,5.3-33.6,17.8-39.9,33.7l0,0l0,0c-6.2-15.9-21-28.6-39.9-33.7
		l0,0l0,0c18.9-5.3,33.6-17.8,39.9-33.7l0,0l0,0C828.6,165.6,843.3,178,862.2,183.3z"/>
	<path fill="#FFFFFF" d="M810.2,246.8L810.2,246.8L810.2,246.8c-13,3.6-23.3,12.3-27.6,23.3l0,0l0,0c-4.3-11-14.4-19.7-27.6-23.3
		l0,0l0,0c13-3.6,23.3-12.3,27.6-23.3l0,0l0,0C786.9,234.6,797.1,243.3,810.2,246.8z"/>
</g>
</svg>
